# xmcd CD database file
#
# Track frame offsets:
#	150
#	17166
#	37662
#	56656
#	82235
#	91387
#	117330
#	138070
#	165853
#	174561
#	178721
#	184300
#	189862
#
# Disc length: 2603 seconds
#
# Revision: 2
# Processed by: cddbd v1.4PL0 Copyright (c) Steve Scherf et al.
# Submitted via: CDex 1.50beta10
#
DISCID=9f0a290d
DTITLE=Ernst and Young Interimmanagement and Ernst and Young interim Financials - Nacht van de Managers Blues
DYEAR=2002
DGENRE=Blues
TTITLE0=Bas van Werver en Boet Schouwink - Introduction
TTITLE1=Band van Bestuur - Walking in my shoes
TTITLE2=Band van Bestuur - Iets te veel te managen?
TTITLE3=Band van Bestuur - Recessie Blues
TTITLE4=Kennemer All Stars - Basin Street Blues
TTITLE5=Kennemer All Stars - All of Me
TTITLE6=M.A.C. - Little Red Rooster
TTITLE7=CJ Rides Again - Baby, what you want me to do
TTITLE8=CJ Rides Again - Hoochie Coochie Man
TTITLE9=Boet Schouwink - Bye Bye
TTITLE10=Bonus Track1 - Uitnodiging
TTITLE11=Bonus Track 2 - Wildcards
TTITLE12=Bonus Track 3 - Eindejaarsbonus
EXTD=YEAR: 2002
EXTT0=
EXTT1=
EXTT2=
EXTT3=
EXTT4=
EXTT5=
EXTT6=
EXTT7=
EXTT8=
EXTT9=
EXTT10=
EXTT11=
EXTT12=
PLAYORDER=
